<mxfile host="app.diagrams.net" modified="2023-09-30T10:35:02.125Z" agent="Mozilla/5.0 (Windows NT 10.0; Win64; x64) AppleWebKit/537.36 (KHTML, like Gecko) Chrome/117.0.0.0 Safari/537.36" etag="pakSuHZcdN5FbYdhM0DB" version="22.0.0" type="device">
  <diagram name="Página-1" id="cOyWgmGHMXO5VJ9zmdlT">
    <mxGraphModel dx="1621" dy="1601" grid="1" gridSize="10" guides="1" tooltips="1" connect="1" arrows="1" fold="1" page="1" pageScale="1" pageWidth="827" pageHeight="1169" math="0" shadow="0">
      <root>
        <mxCell id="0" />
        <mxCell id="1" parent="0" />
        <mxCell id="dx6zvSsTpxAph52ySE3O-1" value="&lt;font style=&quot;font-size: 20px;&quot;&gt;User&lt;/font&gt;" style="rounded=0;whiteSpace=wrap;html=1;" parent="1" vertex="1">
          <mxGeometry x="175" y="170" width="120" height="60" as="geometry" />
        </mxCell>
        <mxCell id="dx6zvSsTpxAph52ySE3O-2" value="&lt;span style=&quot;font-size: 20px;&quot;&gt;Match&lt;/span&gt;" style="rounded=0;whiteSpace=wrap;html=1;" parent="1" vertex="1">
          <mxGeometry x="525" y="170" width="120" height="60" as="geometry" />
        </mxCell>
        <mxCell id="dx6zvSsTpxAph52ySE3O-3" value="play" style="rhombus;whiteSpace=wrap;html=1;" parent="1" vertex="1">
          <mxGeometry x="365" y="160" width="80" height="80" as="geometry" />
        </mxCell>
        <mxCell id="dx6zvSsTpxAph52ySE3O-7" value="" style="endArrow=none;html=1;rounded=0;exitX=0;exitY=0.5;exitDx=0;exitDy=0;shape=link;entryX=1;entryY=0.5;entryDx=0;entryDy=0;" parent="1" source="dx6zvSsTpxAph52ySE3O-3" target="dx6zvSsTpxAph52ySE3O-1" edge="1">
          <mxGeometry width="50" height="50" relative="1" as="geometry">
            <mxPoint x="385" y="280" as="sourcePoint" />
            <mxPoint x="305" y="200" as="targetPoint" />
          </mxGeometry>
        </mxCell>
        <mxCell id="dx6zvSsTpxAph52ySE3O-15" value="N" style="edgeLabel;html=1;align=center;verticalAlign=middle;resizable=0;points=[];fontSize=20;" parent="dx6zvSsTpxAph52ySE3O-7" vertex="1" connectable="0">
          <mxGeometry x="0.058" y="3" relative="1" as="geometry">
            <mxPoint x="-20" y="-18" as="offset" />
          </mxGeometry>
        </mxCell>
        <mxCell id="dx6zvSsTpxAph52ySE3O-8" value="" style="endArrow=none;html=1;rounded=0;exitX=0;exitY=0.5;exitDx=0;exitDy=0;entryX=1;entryY=0.5;entryDx=0;entryDy=0;shape=link;" parent="1" source="dx6zvSsTpxAph52ySE3O-2" target="dx6zvSsTpxAph52ySE3O-3" edge="1">
          <mxGeometry width="50" height="50" relative="1" as="geometry">
            <mxPoint x="375" y="210" as="sourcePoint" />
            <mxPoint x="295" y="210" as="targetPoint" />
          </mxGeometry>
        </mxCell>
        <mxCell id="dx6zvSsTpxAph52ySE3O-13" value="N&lt;br style=&quot;font-size: 20px;&quot;&gt;" style="edgeLabel;html=1;align=center;verticalAlign=middle;resizable=0;points=[];fontSize=20;" parent="dx6zvSsTpxAph52ySE3O-8" vertex="1" connectable="0">
          <mxGeometry x="-0.15" relative="1" as="geometry">
            <mxPoint x="14" y="-15" as="offset" />
          </mxGeometry>
        </mxCell>
        <mxCell id="dx6zvSsTpxAph52ySE3O-9" value="Rank" style="ellipse;whiteSpace=wrap;html=1;dashed=1;" parent="1" vertex="1">
          <mxGeometry x="199" y="100" width="70" height="30" as="geometry" />
        </mxCell>
        <mxCell id="dx6zvSsTpxAph52ySE3O-10" value="" style="endArrow=none;html=1;rounded=0;exitX=0.5;exitY=0;exitDx=0;exitDy=0;entryX=0.5;entryY=1;entryDx=0;entryDy=0;" parent="1" source="dx6zvSsTpxAph52ySE3O-1" target="dx6zvSsTpxAph52ySE3O-9" edge="1">
          <mxGeometry width="50" height="50" relative="1" as="geometry">
            <mxPoint x="351.52" y="280" as="sourcePoint" />
            <mxPoint x="401.52" y="230" as="targetPoint" />
          </mxGeometry>
        </mxCell>
        <mxCell id="dx6zvSsTpxAph52ySE3O-11" value="number of games" style="ellipse;whiteSpace=wrap;html=1;dashed=1;" parent="1" vertex="1">
          <mxGeometry x="110" y="255" width="100" height="40" as="geometry" />
        </mxCell>
        <mxCell id="dx6zvSsTpxAph52ySE3O-12" value="" style="endArrow=none;html=1;rounded=0;" parent="1" source="dx6zvSsTpxAph52ySE3O-1" target="dx6zvSsTpxAph52ySE3O-11" edge="1">
          <mxGeometry width="50" height="50" relative="1" as="geometry">
            <mxPoint x="201.51999999999998" y="180" as="sourcePoint" />
            <mxPoint x="201.51999999999998" y="140" as="targetPoint" />
          </mxGeometry>
        </mxCell>
        <mxCell id="dx6zvSsTpxAph52ySE3O-22" value="-&gt; Obtain information about the system, such as the system authors and the system version, by an     unauthenticated user.&#xa;-&gt; Obtain statistical and ranking information, such as number of played games and users ranking, by an     unauthenticated user. (Check)&#xa;-&gt; Register a new user. (Check)&#xa;-&gt; Allow an user to express their desire to start a new game - users will enter a waiting lobby, where a     matchmaking algorithm will select pairs of users and start games with them.&#xa;-&gt; Allow an user to observe the game state. (Check)&#xa;-&gt; Allow an user to play a round. (Check)" style="text;whiteSpace=wrap;" parent="1" vertex="1">
          <mxGeometry x="160" y="-110" width="560" height="150" as="geometry" />
        </mxCell>
        <mxCell id="dx6zvSsTpxAph52ySE3O-31" value="variants" style="ellipse;whiteSpace=wrap;html=1;" parent="1" vertex="1">
          <mxGeometry x="605" y="100" width="70" height="30" as="geometry" />
        </mxCell>
        <mxCell id="dx6zvSsTpxAph52ySE3O-32" value="" style="endArrow=none;html=1;rounded=0;" parent="1" source="dx6zvSsTpxAph52ySE3O-31" target="dx6zvSsTpxAph52ySE3O-2" edge="1">
          <mxGeometry width="50" height="50" relative="1" as="geometry">
            <mxPoint x="385" y="250" as="sourcePoint" />
            <mxPoint x="435" y="200" as="targetPoint" />
          </mxGeometry>
        </mxCell>
        <mxCell id="dx6zvSsTpxAph52ySE3O-33" value="name" style="ellipse;whiteSpace=wrap;html=1;" parent="1" vertex="1">
          <mxGeometry x="269" y="250" width="70" height="30" as="geometry" />
        </mxCell>
        <mxCell id="dx6zvSsTpxAph52ySE3O-34" value="" style="endArrow=none;html=1;rounded=0;" parent="1" source="dx6zvSsTpxAph52ySE3O-1" target="dx6zvSsTpxAph52ySE3O-33" edge="1">
          <mxGeometry width="50" height="50" relative="1" as="geometry">
            <mxPoint x="351.52" y="310" as="sourcePoint" />
            <mxPoint x="401.52" y="260" as="targetPoint" />
          </mxGeometry>
        </mxCell>
        <mxCell id="dx6zvSsTpxAph52ySE3O-35" value="" style="endArrow=none;html=1;rounded=0;exitX=0.25;exitY=0;exitDx=0;exitDy=0;" parent="1" source="dx6zvSsTpxAph52ySE3O-1" target="dx6zvSsTpxAph52ySE3O-36" edge="1">
          <mxGeometry width="50" height="50" relative="1" as="geometry">
            <mxPoint x="351.52" y="310" as="sourcePoint" />
            <mxPoint x="131.51999999999998" y="140" as="targetPoint" />
          </mxGeometry>
        </mxCell>
        <mxCell id="dx6zvSsTpxAph52ySE3O-36" value="password" style="ellipse;whiteSpace=wrap;html=1;" parent="1" vertex="1">
          <mxGeometry x="125" y="130" width="70" height="30" as="geometry" />
        </mxCell>
        <mxCell id="dx6zvSsTpxAph52ySE3O-37" value="" style="endArrow=none;html=1;rounded=0;exitX=0.75;exitY=0;exitDx=0;exitDy=0;" parent="1" source="dx6zvSsTpxAph52ySE3O-1" target="dx6zvSsTpxAph52ySE3O-38" edge="1">
          <mxGeometry width="50" height="50" relative="1" as="geometry">
            <mxPoint x="171.51999999999998" y="240" as="sourcePoint" />
            <mxPoint x="268.00472256207945" y="137.7292532385702" as="targetPoint" />
          </mxGeometry>
        </mxCell>
        <mxCell id="dx6zvSsTpxAph52ySE3O-38" value="&lt;u&gt;id&lt;/u&gt;" style="ellipse;whiteSpace=wrap;html=1;" parent="1" vertex="1">
          <mxGeometry x="275" y="120" width="70" height="30" as="geometry" />
        </mxCell>
        <mxCell id="xWFfn3jdPb55RrBBfNBt-17" value="" style="endArrow=none;html=1;rounded=0;" parent="1" source="xWFfn3jdPb55RrBBfNBt-19" target="dx6zvSsTpxAph52ySE3O-3" edge="1">
          <mxGeometry width="50" height="50" relative="1" as="geometry">
            <mxPoint x="235" y="140" as="sourcePoint" />
            <mxPoint x="445" y="350" as="targetPoint" />
          </mxGeometry>
        </mxCell>
        <mxCell id="xWFfn3jdPb55RrBBfNBt-19" value="Color" style="ellipse;whiteSpace=wrap;html=1;" parent="1" vertex="1">
          <mxGeometry x="370" y="100" width="70" height="30" as="geometry" />
        </mxCell>
        <mxCell id="xWFfn3jdPb55RrBBfNBt-27" value="" style="endArrow=none;html=1;rounded=0;" parent="1" source="xWFfn3jdPb55RrBBfNBt-28" target="dx6zvSsTpxAph52ySE3O-2" edge="1">
          <mxGeometry width="50" height="50" relative="1" as="geometry">
            <mxPoint x="545" y="110" as="sourcePoint" />
            <mxPoint x="575" y="260" as="targetPoint" />
          </mxGeometry>
        </mxCell>
        <mxCell id="xWFfn3jdPb55RrBBfNBt-28" value="id" style="ellipse;whiteSpace=wrap;html=1;fontStyle=4" parent="1" vertex="1">
          <mxGeometry x="500" y="100" width="70" height="30" as="geometry" />
        </mxCell>
        <mxCell id="5pcxS5Uzv3Bjm52267or-4" value="board" style="ellipse;whiteSpace=wrap;html=1;" parent="1" vertex="1">
          <mxGeometry x="550" y="265" width="70" height="30" as="geometry" />
        </mxCell>
        <mxCell id="5pcxS5Uzv3Bjm52267or-8" value="" style="endArrow=none;html=1;rounded=0;" parent="1" source="dx6zvSsTpxAph52ySE3O-2" target="5pcxS5Uzv3Bjm52267or-4" edge="1">
          <mxGeometry width="50" height="50" relative="1" as="geometry">
            <mxPoint x="676" y="349" as="sourcePoint" />
            <mxPoint x="620" y="401" as="targetPoint" />
          </mxGeometry>
        </mxCell>
        <mxCell id="YAuTm9VH2tMG_GHbXv0A-6" value="Note: board has moves, turn, and boardState" style="text;html=1;align=center;verticalAlign=middle;resizable=0;points=[];autosize=1;strokeColor=none;fillColor=none;" parent="1" vertex="1">
          <mxGeometry x="455" y="320" width="260" height="30" as="geometry" />
        </mxCell>
        <mxCell id="YAuTm9VH2tMG_GHbXv0A-7" value="&lt;span style=&quot;font-size: 20px;&quot;&gt;Token&lt;/span&gt;" style="rounded=0;whiteSpace=wrap;html=1;" parent="1" vertex="1">
          <mxGeometry x="-160" y="170" width="120" height="60" as="geometry" />
        </mxCell>
        <mxCell id="YAuTm9VH2tMG_GHbXv0A-8" value="has" style="rhombus;whiteSpace=wrap;html=1;" parent="1" vertex="1">
          <mxGeometry x="30" y="160" width="80" height="80" as="geometry" />
        </mxCell>
        <mxCell id="YAuTm9VH2tMG_GHbXv0A-9" value="" style="endArrow=none;html=1;rounded=0;entryX=0;entryY=0.5;entryDx=0;entryDy=0;exitX=1;exitY=0.5;exitDx=0;exitDy=0;" parent="1" source="YAuTm9VH2tMG_GHbXv0A-8" target="dx6zvSsTpxAph52ySE3O-1" edge="1">
          <mxGeometry width="50" height="50" relative="1" as="geometry">
            <mxPoint x="235" y="300" as="sourcePoint" />
            <mxPoint x="290" y="280" as="targetPoint" />
          </mxGeometry>
        </mxCell>
        <mxCell id="YAuTm9VH2tMG_GHbXv0A-16" value="1" style="edgeLabel;html=1;align=center;verticalAlign=middle;resizable=0;points=[];fontSize=20;" parent="YAuTm9VH2tMG_GHbXv0A-9" vertex="1" connectable="0">
          <mxGeometry x="-0.4564" y="-1" relative="1" as="geometry">
            <mxPoint x="-3" y="-21" as="offset" />
          </mxGeometry>
        </mxCell>
        <mxCell id="YAuTm9VH2tMG_GHbXv0A-10" value="" style="endArrow=none;html=1;rounded=0;entryX=0;entryY=0.5;entryDx=0;entryDy=0;exitX=1;exitY=0.5;exitDx=0;exitDy=0;" parent="1" source="YAuTm9VH2tMG_GHbXv0A-7" target="YAuTm9VH2tMG_GHbXv0A-8" edge="1">
          <mxGeometry width="50" height="50" relative="1" as="geometry">
            <mxPoint x="244" y="305" as="sourcePoint" />
            <mxPoint x="245" y="240" as="targetPoint" />
          </mxGeometry>
        </mxCell>
        <mxCell id="YAuTm9VH2tMG_GHbXv0A-15" value="1" style="edgeLabel;html=1;align=center;verticalAlign=middle;resizable=0;points=[];fontSize=20;" parent="YAuTm9VH2tMG_GHbXv0A-10" vertex="1" connectable="0">
          <mxGeometry x="0.019" relative="1" as="geometry">
            <mxPoint x="14" y="-20" as="offset" />
          </mxGeometry>
        </mxCell>
        <mxCell id="YAuTm9VH2tMG_GHbXv0A-12" value="" style="endArrow=none;html=1;rounded=0;" parent="1" source="YAuTm9VH2tMG_GHbXv0A-7" target="YAuTm9VH2tMG_GHbXv0A-13" edge="1">
          <mxGeometry width="50" height="50" relative="1" as="geometry">
            <mxPoint x="100" y="300" as="sourcePoint" />
            <mxPoint x="-90" y="120" as="targetPoint" />
          </mxGeometry>
        </mxCell>
        <mxCell id="YAuTm9VH2tMG_GHbXv0A-13" value="initialTime" style="ellipse;whiteSpace=wrap;html=1;" parent="1" vertex="1">
          <mxGeometry x="-135" y="110" width="70" height="30" as="geometry" />
        </mxCell>
        <mxCell id="YAuTm9VH2tMG_GHbXv0A-18" value="lifeTime" style="ellipse;whiteSpace=wrap;html=1;" parent="1" vertex="1">
          <mxGeometry x="-260" y="185" width="70" height="30" as="geometry" />
        </mxCell>
        <mxCell id="YAuTm9VH2tMG_GHbXv0A-20" value="" style="endArrow=none;html=1;rounded=0;" parent="1" source="YAuTm9VH2tMG_GHbXv0A-18" target="YAuTm9VH2tMG_GHbXv0A-7" edge="1">
          <mxGeometry width="50" height="50" relative="1" as="geometry">
            <mxPoint x="-190" y="150" as="sourcePoint" />
            <mxPoint x="-90" y="130" as="targetPoint" />
          </mxGeometry>
        </mxCell>
      </root>
    </mxGraphModel>
  </diagram>
</mxfile>
